<svg xmlns="http://www.w3.org/2000/svg" width="1200" height="630" viewBox="0 0 1200 630">
  <defs>
    <linearGradient id="bg" x1="0%" y1="0%" x2="100%" y2="100%">
      <stop offset="0%" stop-color="#09090B"/>
      <stop offset="100%" stop-color="#18181B"/>
    </linearGradient>
    <linearGradient id="accent" x1="0%" y1="0%" x2="100%" y2="0%">
      <stop offset="0%" stop-color="#6366F1"/>
      <stop offset="100%" stop-color="#818CF8"/>
    </linearGradient>
  </defs>
  <rect width="1200" height="630" fill="url(#bg)"/>
  <pattern id="grid" width="60" height="60" patternUnits="userSpaceOnUse">
    <path d="M 60 0 L 0 0 0 60" fill="none" stroke="rgba(99,102,241,0.05)" stroke-width="1"/>
  </pattern>
  <rect width="1200" height="630" fill="url(#grid)"/>
  <rect x="0" y="0" width="1200" height="4" fill="url(#accent)"/>
  <rect x="80" y="200" width="120" height="18" rx="9" fill="#6366F1" opacity="0.95"/>
  <rect x="80" y="230" width="90" height="18" rx="9" fill="#6366F1" opacity="0.7"/>
  <rect x="80" y="260" width="60" height="18" rx="9" fill="#6366F1" opacity="0.45"/>
  <text x="220" y="235" font-family="Arial, sans-serif" font-size="60" font-weight="bold" fill="#FAFAFA">Me'yar</text>
  <text x="220" y="280" font-family="Arial, sans-serif" font-size="22" fill="#A1A1AA">meyar.ai</text>
  <text x="1120" y="400" font-family="Arial, sans-serif" font-size="36" font-weight="bold" fill="#FAFAFA" text-anchor="end" direction="rtl">المستشار القانوني الذكي للأنظمة السعودية</text>
  <text x="200" y="480" font-family="Arial, sans-serif" font-size="40" font-weight="bold" fill="#6366F1" text-anchor="middle">39</text>
  <text x="200" y="510" font-family="Arial, sans-serif" font-size="16" fill="#A1A1AA" text-anchor="middle">Saudi Law</text>
  <text x="420" y="480" font-family="Arial, sans-serif" font-size="40" font-weight="bold" fill="#6366F1" text-anchor="middle">2,289</text>
  <text x="420" y="510" font-family="Arial, sans-serif" font-size="16" fill="#A1A1AA" text-anchor="middle">Legal Articles</text>
  <text x="640" y="480" font-family="Arial, sans-serif" font-size="40" font-weight="bold" fill="#6366F1" text-anchor="middle">100%</text>
  <text x="640" y="510" font-family="Arial, sans-serif" font-size="16" fill="#A1A1AA" text-anchor="middle">Offline &amp; Private</text>
  <rect x="0" y="626" width="1200" height="4" fill="url(#accent)"/>
</svg>
